<!DOCTYPE svg PUBLIC "-//W3C//DTD SVG 1.1//EN" "http://www.w3.org/Graphics/SVG/1.1/DTD/svg11.dtd">

<!-- Uploaded to: SVG Repo, www.svgrepo.com, Transformed by: SVG Repo Mixer Tools -->
<svg width="28" height="28" viewBox="0 0 24 24" fill="none" xmlns="http://www.w3.org/2000/svg">

<g id="SVGRepo_bgCarrier" stroke-width="0"/>

<g id="SVGRepo_tracerCarrier" stroke-linecap="round" stroke-linejoin="round"/>

<g id="SVGRepo_iconCarrier"> <path d="M13 2C13 1.44772 12.5523 1 12 1C11.4477 1 11 1.44772 11 2V2.58579L10.7071 2.29289C10.3166 1.90237 9.68342 1.90237 9.29289 2.29289C8.90237 2.68342 8.90237 3.31658 9.29289 3.70711L11 5.41421V9.58579L8.05023 6.63602V4.22192C8.05023 3.66964 7.60252 3.22192 7.05023 3.22192C6.49795 3.22192 6.05023 3.66964 6.05023 4.22192V4.63602L5.63606 4.22185C5.24554 3.83132 4.61237 3.83132 4.22185 4.22185C3.83132 4.61237 3.83132 5.24554 4.22185 5.63606L4.63608 6.05029H4.2218C3.66952 6.05029 3.2218 6.49801 3.2218 7.05029C3.2218 7.60258 3.66952 8.05029 4.2218 8.05029H6.63608L9.58579 11H5.41421L3.70711 9.29289C3.31658 8.90237 2.68342 8.90237 2.29289 9.29289C1.90237 9.68342 1.90237 10.3166 2.29289 10.7071L2.58579 11H2C1.44772 11 1 11.4477 1 12C1 12.5523 1.44772 13 2 13H2.58579L2.29289 13.2929C1.90237 13.6834 1.90237 14.3166 2.29289 14.7071C2.68342 15.0976 3.31658 15.0976 3.70711 14.7071L5.41421 13H9.58579L6.63608 15.9497H4.2218C3.66952 15.9497 3.2218 16.3974 3.2218 16.9497C3.2218 17.502 3.66952 17.9497 4.2218 17.9497H4.63608L4.2218 18.364C3.83128 18.7545 3.83128 19.3877 4.2218 19.7782C4.61233 20.1687 5.24549 20.1687 5.63602 19.7782L6.05023 19.364V19.7781C6.05023 20.3304 6.49795 20.7781 7.05023 20.7781C7.60252 20.7781 8.05023 20.3304 8.05023 19.7781V17.364L11 14.4142V18.5858L9.29289 20.2929C8.90237 20.6834 8.90237 21.3166 9.29289 21.7071C9.68342 22.0976 10.3166 22.0976 10.7071 21.7071L11 21.4142V22C11 22.5523 11.4477 23 12 23C12.5523 23 13 22.5523 13 22V21.4142L13.2929 21.7071C13.6834 22.0976 14.3166 22.0976 14.7071 21.7071C15.0976 21.3166 15.0976 20.6834 14.7071 20.2929L13 18.5858V14.4142L15.9498 17.364V19.7781C15.9498 20.3304 16.3975 20.7781 16.9498 20.7781C17.5021 20.7781 17.9498 20.3304 17.9498 19.7781V19.364L18.364 19.7782C18.7545 20.1687 19.3877 20.1687 19.7782 19.7782C20.1687 19.3877 20.1687 18.7545 19.7782 18.364L19.3639 17.9497H19.7782C20.3305 17.9497 20.7782 17.502 20.7782 16.9497C20.7782 16.3974 20.3305 15.9497 19.7782 15.9497H17.3639L14.4142 13H18.5858L20.2929 14.7071C20.6834 15.0976 21.3166 15.0976 21.7071 14.7071C22.0976 14.3166 22.0976 13.6834 21.7071 13.2929L21.4142 13H22C22.5523 13 23 12.5523 23 12C23 11.4477 22.5523 11 22 11H21.4142L21.7071 10.7071C22.0976 10.3166 22.0976 9.68342 21.7071 9.29289C21.3166 8.90237 20.6834 8.90237 20.2929 9.29289L18.5858 11H14.4142L17.3639 8.05029H19.7782C20.3305 8.05029 20.7782 7.60258 20.7782 7.05029C20.7782 6.49801 20.3305 6.05029 19.7782 6.05029H19.3639L19.7782 5.63606C20.1687 5.24554 20.1687 4.61237 19.7782 4.22185C19.3876 3.83132 18.7545 3.83132 18.3639 4.22185L17.9498 4.63602V4.22192C17.9498 3.66964 17.5021 3.22192 16.9498 3.22192C16.3975 3.22192 15.9498 3.66964 15.9498 4.22192V6.63602L13 9.58579V5.41421L14.7071 3.70711C15.0976 3.31658 15.0976 2.68342 14.7071 2.29289C14.3166 1.90237 13.6834 1.90237 13.2929 2.29289L13 2.58579V2Z" fill="#019af9"/> </g>

</svg>